<svg height="20" width="18" viewBox="0 0 869 941" xmlns="http://www.w3.org/2000/svg" class="AirdropIconreact__StyledSvg-sc-12g8ni1-0 iOqjoG"><path clip-rule="evenodd" d="M416.385 0.517941C414.005 1.00626 407.951 1.43155 402.93 1.46257C397.91 1.49459 391.097 1.9549 387.789 2.48525C384.482 3.0146 377.883 3.98123 373.124 4.63166C368.365 5.28209 362.282 6.01759 359.605 6.26575C356.928 6.51491 354.276 7.12431 353.711 7.62164C353.146 8.11897 350.863 8.52524 348.637 8.52524C346.411 8.52524 344.291 8.97554 343.923 9.5259C343.555 10.0763 341.945 10.5526 340.344 10.5846C338.743 10.6156 334.159 11.4322 330.155 12.3988C326.152 13.3644 322.543 14.4642 322.135 14.8424C321.726 15.2207 320.25 15.5299 318.853 15.5299C317.457 15.5299 315.469 15.9562 314.436 16.4775C313.404 16.9979 309.882 18.1556 306.61 19.0502C303.339 19.9448 299.689 21.0585 298.499 21.5248C297.309 21.9922 292.686 23.6032 288.225 25.1062C283.763 26.6082 275.246 29.8454 269.298 32.299C263.35 34.7516 255.319 38.2089 251.453 39.9801C247.587 41.7512 241.503 44.6982 237.934 46.5294C234.365 48.3596 226.821 52.3403 221.171 55.3733C215.52 58.4073 204.574 64.9516 196.846 69.9159C189.119 74.8812 181.848 79.7604 180.689 80.7591C179.531 81.7577 178.21 82.5743 177.755 82.5743C177.3 82.5743 175.798 83.5869 174.418 84.8258C173.038 86.0646 168.03 90.0042 163.289 93.5816C158.548 97.1589 151.051 103.238 146.628 107.091C142.206 110.943 134.172 118.18 128.777 123.172C123.382 128.164 116.777 134.486 114.1 137.219C111.423 139.954 105.583 146.226 101.122 151.159C96.6607 156.09 92.4028 160.721 91.6587 161.448C90.9146 162.175 90.2927 163.076 90.2765 163.449C90.2592 163.823 88.3125 166.139 85.9504 168.595C83.5873 171.052 81.6546 173.345 81.6546 173.693C81.6546 174.04 80.439 175.632 78.9519 177.231C77.4659 178.831 76.2492 180.408 76.2481 180.736C76.2481 181.064 75.252 182.395 74.0353 183.693C72.8186 184.991 70.7681 187.65 69.4789 189.6C68.1897 191.551 66.4972 193.753 65.7174 194.493C64.9376 195.233 63.5089 197.259 62.542 198.996C61.5763 200.733 59.6793 203.504 58.3285 205.155C56.9776 206.807 54.0673 211.084 51.8631 214.662C49.6579 218.239 46.4512 223.418 44.737 226.169C43.0228 228.921 37.2951 239.278 32.0086 249.185C26.7221 259.091 21.4444 269.223 20.2817 271.699C19.118 274.176 16.8122 279.58 15.1564 283.707C13.5006 287.835 11.7247 291.64 11.2099 292.163C10.6951 292.685 10.2744 294.122 10.2744 295.356C10.2744 296.59 9.84291 297.846 9.31513 298.147C8.78843 298.448 8.02486 300.331 7.6193 302.332C7.21373 304.332 6.47614 306.701 5.97972 307.596C5.48331 308.492 4.48722 311.251 3.76477 313.727C3.0434 316.204 1.90131 319.581 1.22644 321.232C0.551577 322.883 0 329.23 0 335.336C0 343.194 0.470468 347.287 1.60931 349.345C2.49399 350.944 5.41409 355.369 8.09842 359.177C10.7827 362.986 16.2563 370.641 20.2622 376.189C24.2682 381.736 28.8517 388.077 30.448 390.278C32.0443 392.479 35.5809 397.397 38.3063 401.205C41.0307 405.014 46.5388 412.669 50.5447 418.216C54.5507 423.764 59.1342 430.104 60.7305 432.306C62.3268 434.507 65.7293 439.235 68.2914 442.813C70.8535 446.39 76.246 453.876 80.2757 459.448C84.3054 465.02 90.601 473.8 94.2651 478.961C97.9304 484.121 101.957 489.694 103.214 491.345C104.47 492.996 130.546 529.187 161.16 571.769L216.822 649.19L217.103 782.909L217.385 916.627L219.813 921.129C221.149 923.606 224.097 927.509 226.365 929.801C228.632 932.094 232.576 934.977 235.129 936.207C237.681 937.438 241.79 938.918 244.259 939.496C247.275 940.201 308.737 940.661 431.526 940.898C565.03 941.154 615.906 940.943 620.251 940.112C623.522 939.488 628.146 938.173 630.525 937.191C632.905 936.21 637.076 933.563 639.796 931.31C642.516 929.057 645.739 925.282 646.96 922.921C648.18 920.56 649.727 917.368 650.397 915.829C651.279 913.803 651.615 876.459 651.615 780.562V648.096L656.211 641.8C658.739 638.337 661.66 634.617 662.7 633.532C663.742 632.448 664.593 631.178 664.593 630.711C664.593 630.245 667.033 626.615 670.015 622.645C672.996 618.675 675.928 614.752 676.53 613.926C677.131 613.101 679.194 610.106 681.112 607.27C683.031 604.435 687.521 597.977 691.09 592.919C694.659 587.861 698.796 582.229 700.283 580.404C701.77 578.579 705.907 572.929 709.476 567.85C713.045 562.77 719.129 554.236 722.995 548.883C726.861 543.53 732.945 534.996 736.514 529.916C740.083 524.837 744.22 519.187 745.707 517.362C747.194 515.537 751.331 509.887 754.9 504.808C758.469 499.728 764.552 491.167 768.419 485.781C772.285 480.396 780.802 468.704 787.345 459.8C793.889 450.897 802.406 439.223 806.272 433.859C810.138 428.495 814.247 422.8 815.403 421.201C816.558 419.603 827.795 403.887 840.374 386.275C852.954 368.664 863.992 352.903 864.903 351.252C865.815 349.601 867.11 346.642 867.781 344.677C868.452 342.712 869 337.897 869 333.979C869 330.06 868.513 326.576 867.919 326.236C867.324 325.895 866.837 324.511 866.837 323.161C866.837 321.81 866.39 319.922 865.845 318.967C865.3 318.011 864.054 314.528 863.078 311.226C862.102 307.923 860.844 304.44 860.284 303.485C859.725 302.529 859.266 301.059 859.266 300.218C859.266 299.378 858.704 297.683 858.016 296.452C857.328 295.221 856.417 293.524 855.99 292.68C855.564 291.837 854.872 289.703 854.454 287.939C854.035 286.175 853.243 284.474 852.694 284.16C852.145 283.847 851.696 282.581 851.696 281.347C851.696 280.113 851.285 278.676 850.783 278.154C850.281 277.63 848.473 274.051 846.766 270.198C845.058 266.346 839.892 256.214 835.285 247.684C830.679 239.153 825.202 229.349 823.114 225.898C821.028 222.448 817.236 216.448 814.688 212.565C812.141 208.684 809.159 204.097 808.061 202.372C806.963 200.647 801.402 193.138 795.702 185.685C790.003 178.232 785.035 171.908 784.663 171.633C784.291 171.358 782.555 169.332 780.805 167.13C779.056 164.929 777.375 162.902 777.071 162.627C776.767 162.352 775.085 160.326 773.335 158.124C771.584 155.923 769.371 153.446 768.414 152.621C767.458 151.795 765.931 150.112 765.021 148.879C764.11 147.647 759.514 142.779 754.807 138.061C750.099 133.342 741.935 125.57 736.663 120.788C731.392 116.006 724.483 109.842 721.311 107.091C718.139 104.339 713.737 100.736 711.53 99.0852C709.322 97.4341 706.247 94.9575 704.694 93.5816C703.141 92.2057 699.932 89.743 697.562 88.1079C695.192 86.4739 692.31 84.3344 691.156 83.3548C690.003 82.3751 688.741 81.5736 688.351 81.5736C687.96 81.5736 686.228 80.4118 684.499 78.9929C682.77 77.574 679.41 75.2544 677.031 73.8395C674.651 72.4256 672.461 70.9576 672.164 70.5773C671.866 70.1981 666.134 66.6627 659.427 62.7221C652.719 58.7805 646.99 55.5564 646.697 55.5564C646.404 55.5564 644.135 54.3706 641.654 52.9216C639.173 51.4727 634.682 49.001 631.672 47.429C628.662 45.856 621.819 42.5858 616.465 40.1622C611.112 37.7376 603.568 34.4174 599.702 32.7833C595.836 31.1502 587.805 28.1352 581.857 26.0849C575.909 24.0345 570.068 21.9842 568.879 21.5299C567.689 21.0756 564.039 19.9348 560.767 18.9962C557.496 18.0576 553.974 16.8938 552.941 16.4095C551.909 15.9261 549.869 15.5299 548.409 15.5299C546.949 15.5299 545.487 15.1296 545.159 14.6393C544.832 14.15 542.978 13.5015 541.039 13.1973C539.101 12.8931 534.351 11.9075 530.485 11.0069C526.618 10.1063 521.508 8.97854 519.129 8.50122C516.749 8.02291 513.343 7.36347 511.558 7.03625C509.774 6.70803 505.427 5.96954 501.898 5.39516C498.369 4.82078 491.556 3.88717 486.757 3.32079C481.958 2.75442 472.191 1.91686 465.053 1.45956C457.915 1.00226 445.018 0.403865 436.393 0.129683C427.768 -0.144499 418.764 0.0306179 416.385 0.517941ZM157.902 336.866C162.66 337.425 168.382 338.123 170.616 338.419C172.85 338.714 174.948 339.358 175.276 339.851C175.605 340.343 176.941 340.752 178.244 340.76C179.547 340.768 182.804 341.464 185.48 342.306C188.157 343.15 192.411 344.719 194.932 345.795C197.454 346.87 199.959 347.75 200.498 347.75C201.039 347.75 204.902 349.378 209.083 351.368C213.265 353.359 218.161 356.172 219.964 357.622C222.934 360.011 227.349 371.665 267.01 481.803C291.082 548.653 310.542 603.701 310.253 604.134C309.963 604.566 301.262 604.92 290.915 604.92H272.102L270.16 602.384C269.092 600.99 267 598.329 265.513 596.472C264.026 594.614 259.889 588.94 256.32 583.86C252.751 578.781 246.667 570.246 242.801 564.894C238.934 559.541 232.851 551.006 229.282 545.927C225.713 540.848 221.576 535.198 220.089 533.373C218.602 531.548 214.465 525.898 210.896 520.818C207.327 515.739 201.244 507.204 197.377 501.852C193.511 496.499 187.427 487.965 183.858 482.885C180.289 477.806 176.152 472.156 174.665 470.331C173.178 468.506 169.041 462.856 165.472 457.777C161.903 452.697 155.82 444.163 151.953 438.81C148.087 433.458 142.003 424.923 138.434 419.844C134.865 414.764 130.729 409.114 129.241 407.289C127.754 405.464 123.618 399.817 120.049 394.742C116.48 389.668 110.396 381.113 106.53 375.732C102.663 370.353 96.9441 362.419 93.8206 358.102C90.6972 353.784 88.2638 349.401 88.413 348.361C88.611 346.985 90.6637 345.88 95.9642 344.295C99.968 343.097 103.578 341.809 103.986 341.432C104.394 341.054 106.077 340.745 107.728 340.745C109.378 340.745 110.985 340.359 111.301 339.888C111.616 339.415 114.443 338.686 117.584 338.266C120.723 337.845 125.97 337.172 129.241 336.769C132.513 336.365 138.353 335.994 142.22 335.943C146.086 335.892 153.143 336.307 157.902 336.866ZM463.431 336.821C470.271 337.343 479.275 338.016 483.439 338.317C487.603 338.617 491.983 339.264 493.172 339.756C494.362 340.247 497.769 340.862 500.743 341.124C503.717 341.386 510.044 342.281 514.803 343.114C519.561 343.947 525.645 345.138 528.322 345.761C530.999 346.384 534.892 347.139 536.974 347.441C539.056 347.741 541.246 348.333 541.841 348.756C542.436 349.179 545.094 349.856 547.748 350.262C550.401 350.668 553.321 351.356 554.237 351.794C555.152 352.23 558.659 353.331 562.032 354.238C565.404 355.147 568.383 356.424 568.654 357.075C568.924 357.727 567.705 362.538 565.945 367.765C564.184 372.993 562.315 378.17 561.793 379.271C561.269 380.371 559.559 385.1 557.993 389.778C556.427 394.456 554.724 399.184 554.208 400.285C553.692 401.385 551.989 406.113 550.423 410.792C548.857 415.47 547.153 420.198 546.637 421.299C546.121 422.399 544.418 427.127 542.852 431.806C541.286 436.484 539.582 441.212 539.068 442.312C538.553 443.413 536.873 448.141 535.336 452.819C533.799 457.498 532.078 462.107 531.513 463.062C530.948 464.018 530.485 465.617 530.485 466.615C530.485 467.613 530.08 468.858 529.586 469.38C529.092 469.903 527.793 473.258 526.699 476.835C525.606 480.413 524.307 483.768 523.813 484.29C523.319 484.813 522.914 486.187 522.914 487.342C522.914 488.498 522.51 489.871 522.015 490.394C521.521 490.917 520.222 494.272 519.129 497.849C518.035 501.427 516.737 504.781 516.242 505.304C515.748 505.827 515.344 507.2 515.344 508.356C515.344 509.512 514.939 510.886 514.445 511.408C513.951 511.932 512.652 515.286 511.558 518.863C510.465 522.441 509.166 525.795 508.672 526.318C508.177 526.84 507.773 528.214 507.773 529.37C507.773 530.526 507.368 531.9 506.874 532.422C506.38 532.945 505.081 536.3 503.988 539.877C502.894 543.454 501.595 546.809 501.101 547.332C500.607 547.854 500.202 549.228 500.202 550.384C500.202 551.54 499.798 552.914 499.304 553.436C498.809 553.959 497.51 557.314 496.417 560.891C495.324 564.468 494.025 567.823 493.53 568.346C493.036 568.868 492.632 570.242 492.632 571.398C492.632 572.554 492.227 573.928 491.733 574.45C491.239 574.973 489.94 578.328 488.846 581.905C487.753 585.482 486.454 588.836 485.96 589.36C485.465 589.882 485.061 591.319 485.061 592.553C485.061 593.787 484.629 595.043 484.102 595.344C483.575 595.645 482.832 597.428 482.451 599.304C482.071 601.182 481.107 603.218 480.311 603.829C479.287 604.616 465.439 604.865 433.023 604.681L387.184 604.42L357.335 521.865C340.918 476.46 327.237 438.635 326.932 437.809C326.628 436.984 325.06 432.481 323.448 427.803C321.836 423.125 320.132 418.397 319.659 417.296C319.187 416.195 317.484 411.467 315.874 406.789C314.264 402.111 312.561 397.383 312.088 396.282C311.617 395.181 309.913 390.453 308.303 385.775C306.694 381.097 304.982 376.369 304.499 375.268C304.018 374.167 302.497 369.967 301.121 365.933C299.262 360.487 298.911 358.169 299.756 356.927C300.382 356.007 301.815 355.119 302.941 354.953C304.067 354.788 305.962 354.286 307.151 353.841C308.341 353.396 311.018 352.535 313.1 351.931C315.182 351.325 318.964 350.529 321.505 350.159C324.047 349.79 326.387 349.097 326.706 348.619C327.025 348.141 328.933 347.75 330.945 347.75C332.956 347.75 334.872 347.348 335.2 346.855C335.529 346.363 337.626 345.712 339.861 345.41C342.095 345.108 347.816 344.127 352.575 343.231C357.334 342.335 364.391 341.175 368.257 340.654C372.123 340.133 378.937 339.252 383.398 338.696C387.86 338.139 396.376 337.318 402.325 336.87C408.273 336.422 421.657 336.014 432.067 335.963C442.476 335.912 456.59 336.297 463.431 336.821ZM738.677 336.866C743.436 337.425 749.157 338.123 751.391 338.419C753.626 338.714 755.723 339.358 756.052 339.851C756.38 340.343 757.679 340.745 758.938 340.745C760.197 340.745 764.913 341.917 769.419 343.35C773.925 344.782 778.221 346.413 778.964 346.974C779.708 347.536 780.316 348.327 780.316 348.732C780.316 349.139 763.621 372.637 743.217 400.952C722.813 429.267 704.806 454.026 703.201 455.973C701.596 457.92 700.283 459.803 700.283 460.157C700.283 460.512 697.321 464.659 693.7 469.372C690.079 474.086 686.548 478.933 685.852 480.142C685.158 481.35 675.346 495.102 664.047 510.702C652.748 526.301 642.8 540.035 641.941 541.222C641.081 542.409 634.267 551.862 626.799 562.229C619.332 572.596 612.527 582.052 611.678 583.243C610.829 584.434 607.924 588.559 605.221 592.412C602.519 596.264 599.108 600.654 597.64 602.168L594.971 604.92H576.161H557.351L558.041 601.668C558.42 599.879 559.12 597.515 559.597 596.414C560.074 595.314 561.348 591.711 562.43 588.409C563.51 585.107 564.795 581.978 565.285 581.455C565.775 580.932 566.175 579.687 566.175 578.689C566.175 577.691 566.601 576.092 567.122 575.136C567.642 574.181 568.946 570.697 570.016 567.395C571.088 564.093 572.366 560.964 572.855 560.441C573.345 559.918 573.746 558.674 573.746 557.675C573.746 556.677 574.172 555.078 574.693 554.123C575.213 553.167 576.516 549.684 577.587 546.381C578.659 543.079 579.936 539.95 580.426 539.427C580.916 538.904 581.316 537.66 581.316 536.661C581.316 535.663 581.742 534.064 582.264 533.109C582.784 532.153 584.087 528.67 585.158 525.367C586.229 522.065 587.507 518.936 587.997 518.413C588.487 517.89 588.887 516.646 588.887 515.647C588.887 514.649 589.313 513.05 589.834 512.095C590.354 511.139 591.658 507.656 592.728 504.354C593.8 501.051 595.077 497.921 595.567 497.399C596.057 496.877 596.457 495.632 596.457 494.633C596.457 493.635 596.883 492.036 597.405 491.081C597.925 490.125 599.228 486.642 600.299 483.34C601.371 480.037 602.648 476.907 603.138 476.385C603.628 475.863 604.028 474.618 604.028 473.619C604.028 472.622 604.454 471.022 604.975 470.067C605.496 469.111 606.799 465.628 607.87 462.326C608.941 459.024 610.219 455.893 610.709 455.371C611.199 454.849 611.599 453.604 611.599 452.605C611.599 451.608 612.057 450.009 612.616 449.053C613.177 448.097 614.47 444.614 615.49 441.312C616.511 438.01 617.756 434.88 618.258 434.357C618.759 433.835 619.169 432.59 619.169 431.591C619.169 430.594 619.628 428.995 620.187 428.039C620.747 427.083 622.041 423.6 623.061 420.298C624.082 416.996 625.326 413.867 625.828 413.343C626.33 412.821 626.74 411.576 626.74 410.577C626.74 409.58 627.198 407.981 627.758 407.025C628.318 406.069 629.611 402.586 630.631 399.284C631.652 395.982 632.897 392.852 633.399 392.329C633.901 391.807 634.311 390.562 634.311 389.564C634.311 388.566 634.769 386.967 635.328 386.011C635.888 385.056 637.182 381.572 638.202 378.27C639.223 374.968 640.468 371.838 640.969 371.315C641.471 370.792 641.881 369.548 641.881 368.55C641.881 367.552 642.289 365.953 642.788 364.997C643.286 364.042 644.381 361.959 645.221 360.368C646.216 358.483 649.384 356.139 654.319 353.637C658.482 351.524 666.513 348.154 672.164 346.147C677.815 344.139 683.411 342.137 684.601 341.697C685.791 341.257 688.224 340.617 690.009 340.276C691.793 339.935 695.2 339.201 697.579 338.647C699.959 338.091 705.069 337.275 708.935 336.832C712.802 336.388 719.129 335.986 722.995 335.938C726.861 335.889 733.918 336.307 738.677 336.866Z" fill-rule="evenodd"></path></svg>